<mxfile host="Electron" modified="2023-12-21T13:20:14.575Z" agent="Mozilla/5.0 (Windows NT 10.0; Win64; x64) AppleWebKit/537.36 (KHTML, like Gecko) draw.io/22.1.2 Chrome/114.0.5735.289 Electron/25.9.4 Safari/537.36" etag="6_RsOU6DIUhCWq3ak_Gw" version="22.1.2" type="device">
  <diagram name="Page-1" id="IDIjA2pl1mmYhws8nj_x">
    <mxGraphModel dx="1961" dy="1788" grid="1" gridSize="10" guides="1" tooltips="1" connect="1" arrows="1" fold="1" page="1" pageScale="1" pageWidth="850" pageHeight="1100" math="0" shadow="0">
      <root>
        <mxCell id="0" />
        <mxCell id="1" parent="0" />
        <mxCell id="8wpZ8eVLHsaWocEI49b0-1" value="" style="rounded=0;whiteSpace=wrap;html=1;" parent="1" vertex="1">
          <mxGeometry x="-40" y="-10" width="1020" height="640" as="geometry" />
        </mxCell>
        <mxCell id="8wpZ8eVLHsaWocEI49b0-2" value="" style="rounded=0;whiteSpace=wrap;html=1;" parent="1" vertex="1">
          <mxGeometry x="770" y="90" width="120" height="40" as="geometry" />
        </mxCell>
        <mxCell id="8wpZ8eVLHsaWocEI49b0-4" value="search" style="rounded=0;whiteSpace=wrap;html=1;" parent="1" vertex="1">
          <mxGeometry x="640" y="90" width="120" height="40" as="geometry" />
        </mxCell>
        <mxCell id="8wpZ8eVLHsaWocEI49b0-5" value="" style="rounded=0;whiteSpace=wrap;html=1;" parent="1" vertex="1">
          <mxGeometry x="330" y="20" width="270" height="40" as="geometry" />
        </mxCell>
        <mxCell id="8wpZ8eVLHsaWocEI49b0-6" value="add" style="rounded=0;whiteSpace=wrap;html=1;" parent="1" vertex="1">
          <mxGeometry x="54" y="90" width="110" height="40" as="geometry" />
        </mxCell>
        <mxCell id="8wpZ8eVLHsaWocEI49b0-7" value="update" style="rounded=0;whiteSpace=wrap;html=1;" parent="1" vertex="1">
          <mxGeometry x="180" y="90" width="100" height="40" as="geometry" />
        </mxCell>
        <mxCell id="8wpZ8eVLHsaWocEI49b0-8" value="delete" style="rounded=0;whiteSpace=wrap;html=1;" parent="1" vertex="1">
          <mxGeometry x="345.5" y="90" width="100" height="40" as="geometry" />
        </mxCell>
        <mxCell id="8wpZ8eVLHsaWocEI49b0-9" value="" style="rounded=0;whiteSpace=wrap;html=1;" parent="1" vertex="1">
          <mxGeometry x="390" y="200" width="500" height="250" as="geometry" />
        </mxCell>
        <mxCell id="8wpZ8eVLHsaWocEI49b0-10" value="" style="rounded=0;whiteSpace=wrap;html=1;" parent="1" vertex="1">
          <mxGeometry x="55" y="230" width="120" height="40" as="geometry" />
        </mxCell>
        <mxCell id="8wpZ8eVLHsaWocEI49b0-11" value="" style="rounded=0;whiteSpace=wrap;html=1;" parent="1" vertex="1">
          <mxGeometry x="225.5" y="230" width="120" height="40" as="geometry" />
        </mxCell>
        <mxCell id="8wpZ8eVLHsaWocEI49b0-12" value="" style="rounded=0;whiteSpace=wrap;html=1;" parent="1" vertex="1">
          <mxGeometry x="55" y="320" width="120" height="40" as="geometry" />
        </mxCell>
        <mxCell id="8wpZ8eVLHsaWocEI49b0-14" value="" style="rounded=0;whiteSpace=wrap;html=1;" parent="1" vertex="1">
          <mxGeometry x="225.5" y="320" width="120" height="40" as="geometry" />
        </mxCell>
        <mxCell id="8wpZ8eVLHsaWocEI49b0-15" value="" style="rounded=0;whiteSpace=wrap;html=1;" parent="1" vertex="1">
          <mxGeometry x="54" y="410" width="120" height="40" as="geometry" />
        </mxCell>
        <mxCell id="8wpZ8eVLHsaWocEI49b0-16" value="gender&amp;nbsp;" style="rounded=1;whiteSpace=wrap;html=1;" parent="1" vertex="1">
          <mxGeometry x="225.5" y="200" width="119" height="20" as="geometry" />
        </mxCell>
        <mxCell id="8wpZ8eVLHsaWocEI49b0-17" value="contact" style="rounded=1;whiteSpace=wrap;html=1;" parent="1" vertex="1">
          <mxGeometry x="55" y="290" width="119" height="20" as="geometry" />
        </mxCell>
        <mxCell id="8wpZ8eVLHsaWocEI49b0-18" value="name" style="rounded=1;whiteSpace=wrap;html=1;" parent="1" vertex="1">
          <mxGeometry x="55" y="200" width="119" height="20" as="geometry" />
        </mxCell>
        <mxCell id="8wpZ8eVLHsaWocEI49b0-19" value="catagory" style="rounded=1;whiteSpace=wrap;html=1;" parent="1" vertex="1">
          <mxGeometry x="225.5" y="290" width="119" height="20" as="geometry" />
        </mxCell>
        <mxCell id="8wpZ8eVLHsaWocEI49b0-21" value="nid" style="rounded=1;whiteSpace=wrap;html=1;" parent="1" vertex="1">
          <mxGeometry x="54" y="380" width="119" height="20" as="geometry" />
        </mxCell>
        <mxCell id="7ODA2kSjG87pf41awCKi-4" value="" style="rounded=0;whiteSpace=wrap;html=1;" vertex="1" parent="1">
          <mxGeometry x="460" y="90" width="120" height="40" as="geometry" />
        </mxCell>
      </root>
    </mxGraphModel>
  </diagram>
</mxfile>
